<?xml version="1.0" encoding="utf-8"?>
<!-- Generator: Adobe Illustrator 16.0.0, SVG Export Plug-In . SVG Version: 6.00 Build 0)  -->
<!DOCTYPE svg PUBLIC "-//W3C//DTD SVG 1.1//EN" "http://www.w3.org/Graphics/SVG/1.1/DTD/svg11.dtd">
<svg version="1.1" id="Layer_1" xmlns="http://www.w3.org/2000/svg" xmlns:xlink="http://www.w3.org/1999/xlink" x="0px" y="0px"
	 width="250px" height="250px" viewBox="0 0 250 250" enable-background="new 0 0 250 250" xml:space="preserve">
<path fill-rule="evenodd" clip-rule="evenodd" stroke="#FFFFFF" stroke-width="2" stroke-miterlimit="10" d="M118.992,92.336
	c3.054-4.81,5.097-8.028,7.141-11.244c2.567,2.58,4.928,5.423,7.773,7.651c2.078,1.625,4.723,3.228,7.233,3.444
	c5.57,0.474,11.215-0.04,16.824,0.049c10.845,0.178,10.845,0.236,8.762,11.94c-7.931,0-16.149-0.636-24.175,0.319
	c-3.164,0.375-8.11,4.088-8.378,6.677c-0.61,5.948,4.185,4.229,8.344,4.06c8.181-0.336,16.471,0.056,24.582,1.169
	c2.931,0.402,5.468,3.724,8.184,5.712c-2.56,2.534-4.876,6.89-7.715,7.259c-8.134,1.053-16.496,0.854-24.73,0.447
	c-7.222-0.356-9.034,2.387-8.389,9.358c0.919,9.811,0.975,19.74,0.74,29.6c-0.166,7.009-1.983,8.119-11.536,8.6
	c-1.376-14.812-2.76-29.707-4.279-46.032c-10.007-0.659-20.032-1.318-30.531-2.006c-1.451-5.562-0.297-8.825,6.087-9.254
	c6.541-0.437,13.168-0.772,19.52-2.211c2.596-0.588,4.567-3.954,6.818-6.058c-2.438-1.398-4.775-3.76-7.33-4.022
	c-9.847-1.009-19.767-1.349-30.815-2.006C87.301,97.456,87.301,97.456,118.992,92.336z"/>
</svg>
