<?xml version="1.0" encoding="utf-8"?>
<!-- Generator: Adobe Illustrator 16.0.0, SVG Export Plug-In . SVG Version: 6.00 Build 0)  -->
<!DOCTYPE svg PUBLIC "-//W3C//DTD SVG 1.1//EN" "http://www.w3.org/Graphics/SVG/1.1/DTD/svg11.dtd">
<svg version="1.1" id="Layer_1" xmlns="http://www.w3.org/2000/svg" xmlns:xlink="http://www.w3.org/1999/xlink" x="0px" y="0px"
	 width="250px" height="250px" viewBox="0 0 250 250" enable-background="new 0 0 250 250" xml:space="preserve">
<g>
	
		<path fill-rule="evenodd" clip-rule="evenodd" stroke="#000000" stroke-width="5" stroke-linecap="round" stroke-linejoin="round" stroke-miterlimit="10" d="
		M153.777,80.5c-5.553,7.645-60.315,7.645-65.801,0C110.058,80.5,131.236,80.5,153.777,80.5z"/>
	<g>
		
			<path fill="#FFFFFF" stroke="#000000" stroke-width="5" stroke-linecap="round" stroke-linejoin="round" stroke-miterlimit="10" d="
			M87.248,96.5c11.538,29,22.391,55.96,34.103,85.246c11.864-29.933,22.669-57.246,33.778-85.246
			C131.938,96.5,110.612,96.5,87.248,96.5z"/>
		
			<path fill-rule="evenodd" clip-rule="evenodd" stroke="#000000" stroke-width="5" stroke-linecap="round" stroke-linejoin="round" stroke-miterlimit="10" d="
			M87.248,96.5c23.364,0,44.689,0,67.881,0c-11.108,28-21.914,55.313-33.778,85.246C109.639,152.46,98.786,125.5,87.248,96.5z
			 M145.516,103.5c-17.324,0-32.48,0-48.636,0c8.176,21,15.896,39.621,24.439,60.916C129.904,142.805,137.492,124.5,145.516,103.5z"
			/>
	</g>
</g>
</svg>
