<?xml version="1.0" encoding="utf-8"?>
<!-- Generator: Adobe Illustrator 16.0.0, SVG Export Plug-In . SVG Version: 6.00 Build 0)  -->
<!DOCTYPE svg PUBLIC "-//W3C//DTD SVG 1.1//EN" "http://www.w3.org/Graphics/SVG/1.1/DTD/svg11.dtd">
<svg version="1.1" id="Layer_1" xmlns="http://www.w3.org/2000/svg" xmlns:xlink="http://www.w3.org/1999/xlink" x="0px" y="0px"
	 width="250px" height="250px" viewBox="0 0 250 250" enable-background="new 0 0 250 250" xml:space="preserve">
<g>
	
		<path fill="#FFFFFF" stroke="#000000" stroke-width="2.901" stroke-linecap="round" stroke-linejoin="round" stroke-miterlimit="10" d="
		M99.267,152.943c-1.235,0.011-2.474,0.027-3.711,0.039c-0.241,3.382-1.592,7.167-0.533,10.068
		c4.392,12.017,13.556,18.691,26.262,18.799c12.582,0.108,23.407-5.631,26.468-18.034c2.386-9.667,0.477-20.397,0.477-32.029
		c5.45-2.289,17.15,10.118,24.74-7.904c-7.201,0-12.881,0.068-18.556-0.013c-12.426-0.164-25.016,0.783-37.211-0.985
		c-9.927-1.439-17.553-9.62-15.389-19.609c1.572-7.241,8.011-15.491,14.578-19.08c9.133-4.989,17.707,0.535,23.103,9.352
		c1.98,3.235,3.462,6.776,5.177,10.173c1.716-0.553,3.436-1.108,5.152-1.663c-1.951-5.635-2.748-12.097-6.08-16.746
		c-8.257-11.496-23.865-14.649-35.763-7.127c-5.125,3.243-11.125,8.714-12.159,14.054c-1.944,10.011-0.564,20.674-0.564,31.785
		c-1.578,0-5.816-0.607-9.774,0.192c-3.267,0.651-6.201,2.962-9.281,4.539c2.983,1.189,5.929,3.31,8.949,3.416
		c12.423,0.437,24.925-0.414,37.299,0.51c11.417,0.85,18.938,7.729,19.59,19.486c0.575,10.34-4.992,17.751-15.052,20.55
		c-10.896,3.031-18.776-1.592-23.805-11.428C101.788,158.558,100.57,155.729,99.267,152.943z"/>
	
		<path fill-rule="evenodd" clip-rule="evenodd" stroke="#000000" stroke-width="2.901" stroke-linecap="round" stroke-linejoin="round" stroke-miterlimit="10" d="
		M99.267,152.943c1.303,2.786,2.521,5.614,3.918,8.346c5.029,9.836,12.91,14.459,23.805,11.428
		c10.06-2.799,15.627-10.21,15.052-20.55c-0.651-11.758-8.173-18.637-19.59-19.486c-12.375-0.924-24.876-0.073-37.299-0.51
		c-3.02-0.106-5.966-2.227-8.949-3.416c3.08-1.576,6.014-3.888,9.281-4.539c3.958-0.799,8.196-0.192,9.774-0.192
		c0-11.111-1.38-21.774,0.564-31.785c1.034-5.34,7.034-10.811,12.159-14.054c11.898-7.521,27.506-4.369,35.763,7.127
		c3.332,4.649,4.129,11.111,6.08,16.746c-1.717,0.555-3.437,1.11-5.152,1.663c-1.715-3.396-3.196-6.938-5.177-10.173
		c-5.396-8.816-13.97-14.341-23.103-9.352c-6.567,3.589-13.006,11.839-14.578,19.08c-2.165,9.989,5.462,18.17,15.389,19.609
		c12.196,1.768,24.786,0.821,37.211,0.985c5.675,0.081,11.354,0.013,18.556,0.013c-7.59,18.022-19.29,5.615-24.74,7.904
		c0,11.632,1.909,22.362-0.477,32.029c-3.062,12.403-13.887,18.143-26.468,18.034c-12.706-0.107-21.87-6.782-26.262-18.799
		c-1.06-2.901,0.292-6.687,0.533-10.068C96.793,152.971,98.032,152.954,99.267,152.943z"/>
</g>
</svg>
