<?xml version="1.0" encoding="utf-8"?>
<!-- Generator: Adobe Illustrator 16.0.0, SVG Export Plug-In . SVG Version: 6.00 Build 0)  -->
<!DOCTYPE svg PUBLIC "-//W3C//DTD SVG 1.1//EN" "http://www.w3.org/Graphics/SVG/1.1/DTD/svg11.dtd">
<svg version="1.1" id="Layer_1" xmlns="http://www.w3.org/2000/svg" xmlns:xlink="http://www.w3.org/1999/xlink" x="0px" y="0px"
	 width="250px" height="250px" viewBox="0 0 250 250" enable-background="new 0 0 250 250" xml:space="preserve">
<g>
	<g>
		<g>
			
				<path fill="#FFFFFF" stroke="#000000" stroke-width="5" stroke-linecap="round" stroke-linejoin="round" stroke-miterlimit="10" d="
				M155.896,149.5c-22.411,0-43.466,0-65.422,0C95.931,156.5,150.377,156.5,155.896,149.5z M155.907,169.327
				c-1.326-1.835-1.66-2.716-2.006-2.718c-19.693-0.212-39.389-0.401-59.08-0.363c-1.142,0.002-2.28,1.906-3.419,2.923
				c1.391,0.779,2.777,2.229,4.175,2.239c18.196,0.156,36.391,0.165,54.586,0.025C151.942,171.42,153.716,170.165,155.907,169.327z"
				/>
			
				<path fill-rule="evenodd" clip-rule="evenodd" stroke="#000000" stroke-width="5" stroke-linecap="round" stroke-linejoin="round" stroke-miterlimit="10" d="
				M155.896,149.5c-5.52,7-59.965,7-65.422,0C112.431,149.5,133.485,149.5,155.896,149.5z"/>
			
				<path fill-rule="evenodd" clip-rule="evenodd" stroke="#000000" stroke-width="4.565" stroke-linecap="round" stroke-linejoin="round" stroke-miterlimit="10" d="
				M155.907,169.327c-2.191,0.838-3.965,2.093-5.744,2.106c-18.195,0.14-36.391,0.131-54.586-0.025
				c-1.397-0.011-2.784-1.46-4.175-2.239c1.139-1.017,2.278-2.921,3.419-2.923c19.691-0.038,39.387,0.151,59.08,0.363
				C154.247,166.611,154.581,167.492,155.907,169.327z"/>
		</g>
	</g>
	<g>
		
			<path fill="#FFFFFF" stroke="#000000" stroke-width="4.565" stroke-linecap="round" stroke-linejoin="round" stroke-miterlimit="10" d="
			M117.236,150.081c0.775,0.208,1.549,0.417,2.324,0.622c0.436-1.997,1.235-3.994,1.246-5.996
			c0.103-16.659-0.084-33.316,0.219-49.968c0.045-2.577,2.148-5.117,3.304-7.673c1.693,1.931,3.223,4.043,5.122,5.741
			c2.307,2.061,4.823,5.024,7.445,5.246c2.267,0.193,5.068-2.635,7.159-4.625c1.891-1.796,3.134-4.267,4.665-6.438
			c1.677,2.277,3.643,4.4,4.974,6.864c2.953,5.473,10.413,6.259,13.626,1.06c2.086-3.375,3.606-7.096,5.779-11.461
			c-5.174-0.394-6.707,2.452-8.098,6.146c-0.676,1.789-2.584,3.11-3.937,4.644c-1.432-1.421-2.847-2.863-4.305-4.26
			c-2.501-2.395-4.698-6.097-7.627-6.827c-4.425-1.103-6.95,2.411-8.286,6.781c-0.519,1.699-2.719,2.886-4.152,4.306
			c-1.284-1.322-3.268-2.44-3.723-4.005c-1.426-4.928-4.017-8.04-9.444-7.184c-5.583,0.881-6.655,5.188-6.662,9.971
			c-0.022,17.1-0.029,34.2-0.002,51.301C116.868,146.245,117.106,148.162,117.236,150.081z"/>
		
			<path fill-rule="evenodd" clip-rule="evenodd" stroke="#000000" stroke-width="4.565" stroke-linecap="round" stroke-linejoin="round" stroke-miterlimit="10" d="
			M117.236,150.081c-0.13-1.919-0.368-3.836-0.372-5.757c-0.027-17.102-0.021-34.201,0.002-51.301
			c0.007-4.783,1.079-9.09,6.662-9.971c5.428-0.856,8.019,2.256,9.444,7.184c0.455,1.565,2.438,2.684,3.723,4.005
			c1.434-1.42,3.634-2.607,4.152-4.306c1.336-4.37,3.861-7.883,8.286-6.781c2.929,0.73,5.126,4.432,7.627,6.827
			c1.458,1.396,2.873,2.839,4.305,4.26c1.353-1.534,3.261-2.855,3.937-4.644c1.391-3.693,2.924-6.539,8.098-6.146
			c-2.173,4.366-3.693,8.087-5.779,11.461c-3.213,5.199-10.673,4.414-13.626-1.06c-1.331-2.464-3.297-4.587-4.974-6.864
			c-1.531,2.172-2.774,4.642-4.665,6.438c-2.091,1.99-4.893,4.818-7.159,4.625c-2.622-0.222-5.139-3.185-7.445-5.246
			c-1.899-1.698-3.429-3.811-5.122-5.741c-1.155,2.557-3.259,5.097-3.304,7.673c-0.303,16.651-0.116,33.309-0.219,49.968
			c-0.011,2.002-0.811,3.999-1.246,5.996C118.785,150.498,118.012,150.289,117.236,150.081z"/>
	</g>
</g>
</svg>
