<?xml version="1.0" encoding="utf-8"?>
<!-- Generator: Adobe Illustrator 16.0.0, SVG Export Plug-In . SVG Version: 6.00 Build 0)  -->
<!DOCTYPE svg PUBLIC "-//W3C//DTD SVG 1.1//EN" "http://www.w3.org/Graphics/SVG/1.1/DTD/svg11.dtd">
<svg version="1.1" id="Layer_1" xmlns="http://www.w3.org/2000/svg" xmlns:xlink="http://www.w3.org/1999/xlink" x="0px" y="0px"
	 width="250px" height="250px" viewBox="0 0 250 250" enable-background="new 0 0 250 250" xml:space="preserve">
<g>
	
		<path fill="#FFFFFF" stroke="#000000" stroke-width="3.3562" stroke-linecap="round" stroke-linejoin="round" stroke-miterlimit="10" d="
		M54.976,143.73c1.482-6.164,2.699-10.373,3.488-14.663c3.389-18.454,15.283-30.129,30.843-30.091
		c15.487,0.036,26.979,11.365,30.749,30.215c0.944,4.736,1.632,9.598,3.236,14.116c9.724,27.432,42.781,36.431,65.323,17.923
		c14.2-11.657,18.418-30.858,7.729-45.688c-1.478,6.164-2.697,10.372-3.482,14.66c-3.394,18.459-15.288,30.13-30.847,30.094
		c-15.486-0.036-26.981-11.367-30.751-30.213c-0.942-4.74-1.629-9.596-3.23-14.119c-9.729-27.434-42.784-36.43-65.326-17.924
		C48.507,109.697,44.289,128.897,54.976,143.73z M88.982,152.417c7.579-10.445,15.868-16.892,15.332-22.495
		c-0.563-5.895-9.568-10.983-14.885-16.425c-5.44,5.317-14.561,10.198-15.258,16.081C73.504,135.164,81.647,141.804,88.982,152.417z
		"/>
	
		<path fill-rule="evenodd" clip-rule="evenodd" stroke="#000000" stroke-width="3.3562" stroke-linecap="round" stroke-linejoin="round" stroke-miterlimit="10" d="
		M54.976,143.73c-10.687-14.833-6.468-34.034,7.731-45.69c22.542-18.506,55.598-9.51,65.326,17.924
		c1.602,4.523,2.288,9.379,3.23,14.119c3.77,18.846,15.265,30.177,30.751,30.213c15.559,0.036,27.453-11.635,30.847-30.094
		c0.785-4.288,2.005-8.496,3.482-14.66c10.688,14.83,6.471,34.031-7.729,45.688c-22.542,18.508-55.6,9.509-65.323-17.923
		c-1.604-4.519-2.292-9.38-3.236-14.116c-3.769-18.851-15.262-30.179-30.749-30.215c-15.56-0.038-27.455,11.637-30.843,30.091
		C57.674,133.357,56.458,137.566,54.976,143.73z"/>
	
		<path fill-rule="evenodd" clip-rule="evenodd" stroke="#000000" stroke-width="3.3562" stroke-linecap="round" stroke-linejoin="round" stroke-miterlimit="10" d="
		M88.982,152.417c-7.335-10.613-15.478-17.253-14.812-22.839c0.698-5.883,9.818-10.764,15.258-16.081
		c5.317,5.442,14.322,10.53,14.885,16.425C104.85,135.525,96.561,141.972,88.982,152.417z"/>
</g>
</svg>
