<?xml version="1.0" encoding="utf-8"?>
<!-- Generator: Adobe Illustrator 16.0.0, SVG Export Plug-In . SVG Version: 6.00 Build 0)  -->
<!DOCTYPE svg PUBLIC "-//W3C//DTD SVG 1.1//EN" "http://www.w3.org/Graphics/SVG/1.1/DTD/svg11.dtd">
<svg version="1.1" id="Layer_1" xmlns="http://www.w3.org/2000/svg" xmlns:xlink="http://www.w3.org/1999/xlink" x="0px" y="0px"
	 width="250px" height="250px" viewBox="0 0 250 250" enable-background="new 0 0 250 250" xml:space="preserve">
<g>
	<path fill-rule="evenodd" clip-rule="evenodd" stroke="#000000" stroke-width="2.5117" stroke-miterlimit="10" d="M124.466,112.475
		c17.822-20.981,39.926-23.937,56.204-8.072c13.848,13.5,13.662,37.539-0.394,50.676c-16.604,15.521-37.355,12.49-55.747-8.147
		c-19.1,21.073-40.471,23.821-56.689,7.29c-13.626-13.884-12.987-37.805,1.353-50.637C85.84,88.688,107.089,91.881,124.466,112.475z
		 M120.284,129.987c0.296-13.958-12.066-27.017-26.273-27.758c-14.382-0.746-28.158,12.257-28.466,26.868
		c-0.296,13.963,12.065,27.016,26.273,27.762C106.2,157.609,119.978,144.601,120.284,129.987z M183.466,129.563
		c0.015-13.991-12.613-26.917-26.733-27.369c-14.425-0.461-28.072,12.816-28.082,27.331c-0.015,13.99,12.612,26.916,26.732,27.368
		C169.804,157.354,183.45,144.075,183.466,129.563z"/>
</g>
</svg>
