<?xml version="1.0" encoding="utf-8"?>
<!-- Generator: Adobe Illustrator 16.0.0, SVG Export Plug-In . SVG Version: 6.00 Build 0)  -->
<!DOCTYPE svg PUBLIC "-//W3C//DTD SVG 1.1//EN" "http://www.w3.org/Graphics/SVG/1.1/DTD/svg11.dtd">
<svg version="1.1" id="Layer_1" xmlns="http://www.w3.org/2000/svg" xmlns:xlink="http://www.w3.org/1999/xlink" x="0px" y="0px"
	 width="250px" height="250px" viewBox="0 0 250 250" enable-background="new 0 0 250 250" xml:space="preserve">
<g>
	
		<path fill-rule="evenodd" clip-rule="evenodd" stroke="#231F20" stroke-width="1.9815" stroke-linecap="round" stroke-linejoin="round" stroke-miterlimit="10" d="
		M97.659,132.779c-5.673,10.53-11.347,21.061-17.017,31.591c-0.969-0.511-1.935-1.018-2.904-1.525
		c5.598-10.534,11.198-21.072,16.798-31.614C95.577,131.749,96.618,132.264,97.659,132.779z"/>
	
		<path fill-rule="evenodd" clip-rule="evenodd" stroke="#231F20" stroke-width="1.9815" stroke-linecap="round" stroke-linejoin="round" stroke-miterlimit="10" d="
		M154.493,91.674c-5.315,9.936-10.632,19.875-15.944,29.813c-1.022-0.536-2.042-1.068-3.064-1.603
		c5.336-9.921,10.668-19.846,16.003-29.768C152.49,90.635,153.49,91.152,154.493,91.674z"/>
	
		<path fill-rule="evenodd" clip-rule="evenodd" stroke="#231F20" stroke-width="1.9815" stroke-linecap="round" stroke-linejoin="round" stroke-miterlimit="10" d="
		M129.871,162.667c5.39-10.162,10.778-20.325,16.166-30.484c1.018,0.519,2.037,1.041,3.053,1.56
		c-5.35,10.167-10.702,20.334-16.055,30.5C131.979,163.72,130.924,163.193,129.871,162.667z"/>
	
		<path fill-rule="evenodd" clip-rule="evenodd" stroke="#231F20" stroke-width="1.9815" stroke-linecap="round" stroke-linejoin="round" stroke-miterlimit="10" d="
		M141.412,162.783c5.451-10.209,10.899-20.418,16.351-30.624c0.979,0.508,1.956,1.022,2.936,1.533
		c-5.42,10.229-10.838,20.449-16.256,30.678C143.432,163.84,142.422,163.313,141.412,162.783z"/>
	
		<path fill-rule="evenodd" clip-rule="evenodd" stroke="#231F20" stroke-width="1.9815" stroke-linecap="round" stroke-linejoin="round" stroke-miterlimit="10" d="
		M105.591,91.753c-5.714,9.991-11.43,19.981-17.146,29.972c-0.968-0.546-1.935-1.096-2.905-1.642
		c5.712-9.996,11.419-19.992,17.127-29.985C103.643,90.648,104.618,91.202,105.591,91.753z"/>
	
		<path fill-rule="evenodd" clip-rule="evenodd" stroke="#231F20" stroke-width="1.9815" stroke-linecap="round" stroke-linejoin="round" stroke-miterlimit="10" d="
		M116.21,91.693c-5.05,9.942-10.099,19.883-15.147,29.824c-0.977-0.493-1.955-0.984-2.932-1.481
		c5.085-9.923,10.165-19.848,15.25-29.771C114.322,90.74,115.268,91.218,116.21,91.693z"/>
	
		<path fill-rule="evenodd" clip-rule="evenodd" stroke="#231F20" stroke-width="1.9815" stroke-linecap="round" stroke-linejoin="round" stroke-miterlimit="10" d="
		M128.811,91.908c-5.024,9.77-10.046,19.54-15.065,29.312c-0.975-0.493-1.953-0.986-2.926-1.479
		c5.064-9.786,10.126-19.567,15.192-29.351C126.941,90.895,127.877,91.403,128.811,91.908z"/>
	
		<path fill-rule="evenodd" clip-rule="evenodd" stroke="#231F20" stroke-width="1.9815" stroke-linecap="round" stroke-linejoin="round" stroke-miterlimit="10" d="
		M165.201,91.883c-5.033,9.839-10.064,19.681-15.093,29.523c-1.003-0.512-2.003-1.022-3.001-1.531
		c5.04-9.866,10.083-19.733,15.125-29.598C163.222,90.809,164.21,91.347,165.201,91.883z"/>
	
		<path fill-rule="evenodd" clip-rule="evenodd" stroke="#231F20" stroke-width="1.9815" stroke-linecap="round" stroke-linejoin="round" stroke-miterlimit="10" d="
		M175.844,91.67c-5.067,9.857-10.138,19.714-15.207,29.573c-0.918-0.47-1.831-0.937-2.742-1.406
		c5.075-9.854,10.153-19.708,15.232-29.56C174.032,90.74,174.94,91.206,175.844,91.67z"/>
	
		<path fill-rule="evenodd" clip-rule="evenodd" stroke="#231F20" stroke-width="1.9815" stroke-linecap="round" stroke-linejoin="round" stroke-miterlimit="10" d="
		M121.911,132.686c-5.426,10.516-10.85,21.03-16.276,31.541c-0.938-0.479-1.871-0.96-2.808-1.443
		c5.387-10.53,10.772-21.068,16.158-31.603C119.96,131.684,120.936,132.183,121.911,132.686z"/>
	
		<path fill-rule="evenodd" clip-rule="evenodd" stroke="#231F20" stroke-width="1.9815" stroke-linecap="round" stroke-linejoin="round" stroke-miterlimit="10" d="
		M108.79,132.775c-5.277,10.511-10.558,21.021-15.834,31.532c-0.983-0.491-1.962-0.982-2.943-1.474
		c5.25-10.523,10.501-21.05,15.751-31.576C106.771,131.765,107.779,132.268,108.79,132.775z"/>
	
		<path fill-rule="evenodd" clip-rule="evenodd" stroke="#231F20" stroke-width="1.9815" stroke-linecap="round" stroke-linejoin="round" stroke-miterlimit="10" d="
		M171.374,133.557c-5.081,10.217-10.161,20.434-15.238,30.65c-1.012-0.495-2.024-0.99-3.036-1.489
		c5.103-10.206,10.203-20.415,15.304-30.62C169.393,132.585,170.383,133.069,171.374,133.557z"/>
</g>
</svg>
