<?xml version="1.0" encoding="utf-8"?>
<!-- Generator: Adobe Illustrator 16.0.0, SVG Export Plug-In . SVG Version: 6.00 Build 0)  -->
<!DOCTYPE svg PUBLIC "-//W3C//DTD SVG 1.1//EN" "http://www.w3.org/Graphics/SVG/1.1/DTD/svg11.dtd">
<svg version="1.1" id="Layer_1" xmlns="http://www.w3.org/2000/svg" xmlns:xlink="http://www.w3.org/1999/xlink" x="0px" y="0px"
	 width="250px" height="250px" viewBox="0 0 250 250" enable-background="new 0 0 250 250" xml:space="preserve">
<path fill-rule="evenodd" clip-rule="evenodd" stroke="#FFFFFF" stroke-width="5" stroke-miterlimit="10" d="M120.725,179.363
	c-1.579-4.481-3.503-9.949-5.64-16.018c-7.189-0.759-15.687-1.086-23.873-2.853c-2.57-0.558-5.711-4.754-6.187-7.677
	c-2.543-15.607-4.459-31.324-6.301-47.037c-0.677-5.782,1.713-9.604,8.291-9.546c8.18,0.071,16.36,0.017,24.894,0.017
	c1.95-7.515,3.784-14.595,5.827-22.468c12.926,3.099,7.61,14.129,10.95,22.463c5.652,0,11.984-0.006,18.315,0
	c9.312,0.009,15.812,5.967,16.55,13.697c1.494,15.654,0.446,31.555,0.446,47.512c-9.352,1.021-18.087,2.461-26.868,2.825
	C123.668,160.838,134.393,176.86,120.725,179.363z M150.3,147.655c-2.148-12.77-1.604-25.27-6.946-34.278
	c-2.469-4.16-16.436-1.815-25.19-1.869c-20.759-0.126-20.757,0.005-20.508,20.041c0.04,3.207-0.798,6.72,0.266,9.526
	c0.981,2.592,3.904,6.206,6.091,6.29C118.536,147.922,133.088,147.655,150.3,147.655z"/>
</svg>
