<?xml version="1.0" encoding="utf-8"?>
<!-- Generator: Adobe Illustrator 16.0.0, SVG Export Plug-In . SVG Version: 6.00 Build 0)  -->
<!DOCTYPE svg PUBLIC "-//W3C//DTD SVG 1.1//EN" "http://www.w3.org/Graphics/SVG/1.1/DTD/svg11.dtd">
<svg version="1.1" id="Layer_1" xmlns="http://www.w3.org/2000/svg" xmlns:xlink="http://www.w3.org/1999/xlink" x="0px" y="0px"
	 width="250px" height="250px" viewBox="0 0 250 250" enable-background="new 0 0 250 250" xml:space="preserve">
<path fill-rule="evenodd" clip-rule="evenodd" d="M121.074,112.552c0-11.545-0.81-21.028,0.418-30.226
	c0.461-3.465,5.647-6.279,8.677-9.387c2.288,3.018,5.944,5.758,6.604,9.11c1.902,9.66,2.596,19.571,3.905,30.572
	c9.754-5.729,16.863-10.772,24.671-14.098c3.578-1.522,8.534,0.337,12.862,0.661c-1.95,3.209-3.246,7.262-5.977,9.47
	c-8.584,6.946-17.71,13.202-27.672,20.495c13.092,8.014,25.023,14.63,36.106,22.497c3.722,2.64,5.275,8.457,7.819,12.821
	c-5.301,0.373-11.656,2.84-15.703,0.713c-10.239-5.375-19.443-12.806-30.076-20.111c-2.264,10.091-3.987,19.819-6.75,29.229
	c-1.328,4.52-4.62,8.437-7.026,12.63c-1.892-3.699-4.959-7.247-5.426-11.127c-0.904-7.437-0.119-15.067-0.48-22.599
	c-0.141-2.913-1.49-5.764-2.52-9.475c-16.23,10.152-29.952,21.465-48.191,22.797c-0.842-9.641,19.294-25.725,45.752-36.818
	c-10.263-7.407-19.454-14.031-28.638-20.667c-3.729-2.695-8.002-4.904-10.957-8.305c-1.774-2.045-1.483-5.961-2.121-9.034
	c2.835-0.136,6.255-1.394,8.408-0.224C96.57,97.899,108.068,104.915,121.074,112.552z"/>
</svg>
