<?xml version="1.0" encoding="utf-8"?>
<!-- Generator: Adobe Illustrator 16.0.0, SVG Export Plug-In . SVG Version: 6.00 Build 0)  -->
<!DOCTYPE svg PUBLIC "-//W3C//DTD SVG 1.1//EN" "http://www.w3.org/Graphics/SVG/1.1/DTD/svg11.dtd">
<svg version="1.1" id="Layer_1" xmlns="http://www.w3.org/2000/svg" xmlns:xlink="http://www.w3.org/1999/xlink" x="0px" y="0px"
	 width="250px" height="250px" viewBox="0 0 250 250" enable-background="new 0 0 250 250" xml:space="preserve">
<g>
	
		<path fill="#FFFFFF" stroke="#000000" stroke-width="6" stroke-linecap="round" stroke-linejoin="round" stroke-miterlimit="10" d="
		M169.237,172c-12.535,0-23.004,0-33.475,0c0.035,0,0.074,3,0.112,3c12.783,0,25.562,0,39.696,0
		c-8.595-20-16.514-40.996-25.391-60.992c-2.756-6.2-8.118-11.002-13.111-17.665c2.065-4.594,5.189-11.45,8.315-18.419
		c-0.984-0.486-1.96-0.92-2.938-1.407c-4.251,7.403-8.498,14.835-13.852,24.17c-0.639-10.809-0.164-18.799-0.634-26.804
		c-1.302,0.027-2.961,0.071-2.961,0.101c0,8.135,0,16.273,0,24.406c-3,0.02-2.354,0.039-3.058,0.058
		c-4.185-7.146-8.836-14.289-13.021-21.434c-1.029,0.547-2.291,1.094-3.319,1.642c3.35,7.044,6.578,14.093,9.683,20.636
		c-3.942,2.086-9.1,2.749-10.261,5.411C94.883,127.989,85.385,150,75.674,175c13.515,0,25.725,0,37.938,0c-0.019-3-0.044-3-0.061-3
		c-9.883,0-19.762,0-31.422,0c6.67-16,12.509-30.64,18.432-45.081c9.377-22.861,12.002-24.317,36.188-20.854
		c2.327,0.331,5.628,1.465,6.422,3.325C151.778,129.507,159.973,150,169.237,172z"/>
	
		<path fill-rule="evenodd" clip-rule="evenodd" stroke="#000000" stroke-width="6" stroke-linecap="round" stroke-linejoin="round" stroke-miterlimit="10" d="
		M169.237,172c-9.265-22-17.459-42.433-26.066-62.546c-0.794-1.861-4.095-3.159-6.422-3.491
		c-24.186-3.464-26.811-2.02-36.188,20.841C94.638,141.245,88.799,156,82.129,172c11.66,0,21.539,0,31.422,0
		c0.017,0,0.042,0,0.061,3c-12.213,0-24.423,0-37.938,0c9.711-25,19.152-47.011,29.291-70.296c1.162-2.662,6.259-3.457,10.201-5.543
		c-3.104-6.543-6.453-13.526-9.802-20.57c1.028-0.547,2.056-1.063,3.084-1.611c4.185,7.148,9.31,14.307,13.495,21.453
		c0.703-0.02,0.058-0.021,3.058-0.041c0-8.133,0-16.271,0-24.406c0-0.03,1.659-0.061,2.961-0.088
		c0.47,8.006,0.468,16.011,1.104,26.819c5.357-9.335,9.365-16.738,13.617-24.141c0.979,0.487,1.837,0.976,2.821,1.462
		c-3.127,6.969-6.312,13.938-8.378,18.532c4.993,6.662,10.328,11.238,13.084,17.438C159.087,134.004,166.977,155,175.571,175
		c-14.134,0-26.913,0-39.696,0c-0.038,0-0.077-3-0.112-3C146.233,172,156.702,172,169.237,172z"/>
</g>
</svg>
