<?xml version="1.0" encoding="utf-8"?>
<!-- Generator: Adobe Illustrator 16.0.0, SVG Export Plug-In . SVG Version: 6.00 Build 0)  -->
<!DOCTYPE svg PUBLIC "-//W3C//DTD SVG 1.1//EN" "http://www.w3.org/Graphics/SVG/1.1/DTD/svg11.dtd">
<svg version="1.1" id="Layer_1" xmlns="http://www.w3.org/2000/svg" xmlns:xlink="http://www.w3.org/1999/xlink" x="0px" y="0px"
	 width="250px" height="250px" viewBox="0 0 250 250" enable-background="new 0 0 250 250" xml:space="preserve">
<path stroke="#000000" stroke-width="3" stroke-linecap="round" stroke-linejoin="round" stroke-miterlimit="10" d="
	M165.366,179.968c-2.812-9.323-5.006-16.614-7.623-25.304c-2.12,2.143-4.114,4.159-6.063,6.126
	c-11.635-8.874-19.833-20.342-29.836-29.479c12.404-17.473,24.36-33.812,36.887-52.812c-23.696,0-45.596,0-65.354,0
	c1.519,10,3.733,16.812,3.905,24.146c0.5,21.304,0.038,43.061,0.332,64.367c0.045,3.225,2.124,6.64,3.256,9.851
	c1.438-3.337,4.211-6.544,4.271-9.912c0.39-20.876,0.359-41.655,0.359-62.542c0-5.73,0-12.91,0-17.91c15,0,25.012,0,38.32,0
	c-11.442,18-21.615,31.22-32.627,46.815c11.131,10.617,22.308,20.298,31.76,31.177c0.753,0.867,1.399,1.975,2.013,2.92
	c-2.176,2.189-4.382,4.499-6.735,6.871C148.21,176.346,156.118,178.057,165.366,179.968z"/>
</svg>
